HIERARCHY
ROOT Hips
{
  OFFSET -4.35178 90.3298 111.633
  CHANNELS 6 Xposition Yposition Zposition Zrotation Xrotation Yrotation
  JOINT LeftUpLeg
  {
    OFFSET 0.103456 1.85784 10.5485
    CHANNELS 6 Xposition Yposition Zposition Zrotation Xrotation Yrotation
    JOINT LeftLeg
    {
      OFFSET 43.5 -4.2e-05 0
      CHANNELS 6 Xposition Yposition Zposition Zrotation Xrotation Yrotation
      JOINT LeftFoot
      {
        OFFSET 42.3722 1.9e-05 0
        CHANNELS 6 Xposition Yposition Zposition Zrotation Xrotation Yrotation
        JOINT LeftToe
        {
          OFFSET 17.3 0 0
          CHANNELS 6 Xposition Yposition Zposition Zrotation Xrotation Yrotation
          End Site
          {
            OFFSET 0 0 0
          }
        }
      }
    }
  }
  JOINT RightUpLeg
  {
    OFFSET 0.103456 1.85782 -10.5485
    CHANNELS 6 Xposition Yposition Zposition Zrotation Xrotation Yrotation
    JOINT RightLeg
    {
      OFFSET 43.5 -2.7e-05 0
      CHANNELS 6 Xposition Yposition Zposition Zrotation Xrotation Yrotation
      JOINT RightFoot
      {
        OFFSET 42.3723 0 0
        CHANNELS 6 Xposition Yposition Zposition Zrotation Xrotation Yrotation
        JOINT RightToe
        {
          OFFSET 17.3 0 1.7e-05
          CHANNELS 6 Xposition Yposition Zposition Zrotation Xrotation Yrotation
          End Site
          {
            OFFSET 0 0 0
          }
        }
      }
    }
  }
  JOINT Spine
  {
    OFFSET 6.90197 -2.60373 0
    CHANNELS 6 Xposition Yposition Zposition Zrotation Xrotation Yrotation
    JOINT Spine1
    {
      OFFSET 12.5881 0 0
      CHANNELS 6 Xposition Yposition Zposition Zrotation Xrotation Yrotation
      JOINT Spine2
      {
        OFFSET 12.3432 -1.8e-05 0
        CHANNELS 6 Xposition Yposition Zposition Zrotation Xrotation Yrotation
        JOINT Neck
        {
          OFFSET 25.8329 2.3e-05 0
          CHANNELS 6 Xposition Yposition Zposition Zrotation Xrotation Yrotation
          JOINT Head
          {
            OFFSET 11.7666 0 0
            CHANNELS 6 Xposition Yposition Zposition Zrotation Xrotation Yrotation
            End Site
            {
              OFFSET 0 0 0
            }
          }
        }
        JOINT LeftShoulder
        {
          OFFSET 19.7459 -1.48035 6.0001
          CHANNELS 6 Xposition Yposition Zposition Zrotation Xrotation Yrotation
          JOINT LeftArm
          {
            OFFSET 11.2841 1.8e-05 -2e-05
            CHANNELS 6 Xposition Yposition Zposition Zrotation Xrotation Yrotation
            JOINT LeftForeArm
            {
              OFFSET 33 -1.3e-05 1.9e-05
              CHANNELS 6 Xposition Yposition Zposition Zrotation Xrotation Yrotation
              JOINT LeftHand
              {
                OFFSET 25.2 3.2e-05 1.1e-05
                CHANNELS 6 Xposition Yposition Zposition Zrotation Xrotation Yrotation
                End Site
                {
                  OFFSET 0 0 0
                }
              }
            }
          }
        }
        JOINT RightShoulder
        {
          OFFSET 19.7461 -1.48036 -6.00008
          CHANNELS 6 Xposition Yposition Zposition Zrotation Xrotation Yrotation
          JOINT RightArm
          {
            OFFSET 11.2841 0 0
            CHANNELS 6 Xposition Yposition Zposition Zrotation Xrotation Yrotation
            JOINT RightForeArm
            {
              OFFSET 33.0001 1.6e-05 0
              CHANNELS 6 Xposition Yposition Zposition Zrotation Xrotation Yrotation
              JOINT RightHand
              {
                OFFSET 25.1998 0.000123 0.000432
                CHANNELS 6 Xposition Yposition Zposition Zrotation Xrotation Yrotation
                End Site
                {
                  OFFSET 0 0 0
                }
              }
            }
          }
        }
      }
    }
  }
}
MOTION
Frames:	4
Frame Time:	0.0333333
61.5651 128.051 12.081 90.8465 -76.6943 5.4635 0.103456 1.85784 10.5485 -5.35552 6.80122 167.62 43.5 -4.2e-05 1e-05 -19.0123 -11.7845 -1.54465 42.3722 1.9e-05 -7.10543e-15 73.6586 1.06665 9.96698 17.3 -1.77636e-15 3e-06 21.4546 -1e-06 0.003093 0.103456 1.85782 -10.5485 -22.6769 11.1798 170.179 43.5 -2.7e-05 4e-06 -27.4245 -1.58854 3.57874 42.3723 0 1e-05 81.3338 25.2763 4.1248 17.3 -6e-06 1.7e-05 21.4546 -1.9e-05 -0.003116 6.90197 -2.60373 -3e-06 15.4869 -0.0535632 1.84782 12.5881 1e-05 8e-06 20.9333 0.664093 3.68588 12.3432 -1.8e-05 -5e-06 20.5822 1.20445 3.6407 25.8329 2.3e-05 7e-06 8.05885 -6.08689 -3.65089 11.7666 -8e-06 -6e-06 -25.4562 -2.71638 5.38359 19.7459 -1.48035 6.0001 -178.926 19.1078 -89.8617 11.2841 1.8e-05 -2e-05 -3.10186 -16.2176 60.367 33 -1.3e-05 1.9e-05 -43.0273 17.6404 -11.8584 25.2 3.2e-05 1.1e-05 -23.8143 41.2126 -4.35159 19.7461 -1.48036 -6.00008 -154.039 -36.3554 86.675 11.2841 0 -1e-06 5.55552 28.3809 -41.5121 33.0001 1.6e-05 -1e-06 -55.4387 -9.90795 28.7974 25.1998 0.000123 0.000432 -8.04346 -19.4899 16.6318 
61.6652 127.719 9.78268 90.485 -73.1143 5.29983 0.103456 1.85784 10.5485 -4.91523 5.64727 167.619 43.5 -4.2e-05 1e-05 -20.7812 -10.8858 -0.925764 42.3722 1.9e-05 -7.10543e-15 75.4438 1.10744 8.46725 17.3 0 3e-06 21.4546 -1e-06 0.003093 0.103456 1.85782 -10.5485 -18.5909 12.2305 169.745 43.5 -2.7e-05 4e-06 -17.7173 -0.0361792 4.07154 42.3723 3.55271e-15 1e-05 79.88 25.7246 2.1303 17.3 -6e-06 1.7e-05 21.4546 -1.9e-05 -0.003116 6.90197 -2.60373 -3e-06 14.919 -0.345573 2.04587 12.5881 1e-05 8e-06 19.8104 0.110049 4.16156 12.3432 -1.8e-05 -5e-06 19.4635 0.66389 4.15231 25.8329 2.3e-05 7e-06 8.0152 -6.42829 -3.44775 11.7666 -8e-06 -6e-06 -22.9548 -3.14411 5.17801 19.7459 -1.48035 6.0001 -179.738 17.0249 -88.351 11.2841 1.8e-05 -2e-05 -4.49798 -15.0108 59.7 33 -1.3e-05 1.9e-05 -44.0755 17.3967 -11.0601 25.2 3.2e-05 1.1e-05 -24.2602 41.4655 -4.27516 19.7461 -1.48036 -6.00008 -155.713 -35.8636 83.2597 11.2841 0 -1e-06 4.30972 24.3626 -40.7621 33.0001 1.6e-05 -1e-06 -52.794 -8.6963 28.8501 25.1998 0.000123 0.000432 -8.06862 -18.6646 15.8179 
61.6619 127.254 7.51278 89.4762 -69.4456 4.74328 0.103456 1.85784 10.5485 -4.50472 4.79582 167.57 43.5 -4.2e-05 1e-05 -23.2111 -9.83648 -0.300441 42.3722 1.9e-05 0 77.2958 0.958714 6.56657 17.3 1.77636e-15 3e-06 21.4546 -1e-06 0.003093 0.103456 1.85782 -10.5485 -14.5486 12.95 168.923 43.5 -2.7e-05 4e-06 -11.7494 1.32468 4.90081 42.3723 3.55271e-15 1e-05 79.0128 25.0288 0.112151 17.3 -6e-06 1.7e-05 21.4546 -1.9e-05 -0.003116 6.90197 -2.60373 -3e-06 14.3648 -0.656079 2.14104 12.5881 1e-05 8e-06 18.7205 -0.511624 4.43358 12.3432 -1.8e-05 -5e-06 18.3806 0.0437435 4.46442 25.8329 2.3e-05 7e-06 7.89482 -6.93357 -3.18822 11.7666 -8e-06 -6e-06 -20.3596 -3.74615 4.88655 19.7459 -1.48035 6.0001 179.437 14.537 -86.6694 11.2841 1.8e-05 -2e-05 -5.85033 -13.8272 58.7859 33 -1.3e-05 1.9e-05 -45.0116 16.981 -10.3305 25.2 3.2e-05 1.1e-05 -24.6014 41.6883 -4.25472 19.7461 -1.48036 -6.00008 -156.947 -35.1401 80.2863 11.2841 2.84217e-14 -1e-06 2.74647 20.5878 -40.4596 33.0001 1.6e-05 -1e-06 -49.8169 -7.83077 28.8379 25.1998 0.000123 0.000432 -8.08201 -18.4679 15.451 
61.6993 126.786 5.32234 88.0498 -65.8663 3.79335 0.103456 1.85784 10.5485 -4.21305 4.18935 168.021 43.5 -4.2e-05 1e-05 -26.4867 -8.60149 0.170039 42.3722 1.9e-05 -7.10543e-15 78.7722 0.510027 4.56617 17.3 -3.55271e-15 3e-06 21.4546 -1e-06 0.003093 0.103456 1.85782 -10.5485 -11.505 13.1396 168.895 43.5 -2.7e-05 4e-06 -10.7867 2.63609 5.0853 42.3723 -7.10543e-15 1e-05 80.254 22.4449 -2.51375 17.3 -6e-06 1.7e-05 21.4546 -1.9e-05 -0.003116 6.90197 -2.60373 -3e-06 13.8619 -0.90141 2.19761 12.5881 1e-05 8e-06 17.731 -1.01381 4.6072 12.3432 -1.8e-05 -5e-06 17.3975 -0.461698 4.6705 25.8329 2.3e-05 7e-06 7.73631 -7.57198 -2.84063 11.7666 -8e-06 -6e-06 -17.8417 -4.48793 4.50311 19.7459 -1.48035 6.0001 178.794 12.0568 -85.0481 11.2841 1.8e-05 -2e-05 -7.05944 -12.7594 57.9077 33 -1.3e-05 1.9e-05 -45.8432 16.4853 -9.67858 25.2 3.2e-05 1.1e-05 -24.7368 42.0773 -4.45537 19.7461 -1.48036 -6.00008 -157.839 -34.3035 77.763 11.2841 0 -1e-06 1.28918 17.1697 -40.3487 33.0001 1.6e-05 -1e-06 -47.0534 -6.82972 28.6053 25.1998 0.000123 0.000432 -8.11009 -18.0075 14.7981 
